<svg width="50" height="50" viewBox="0 0 50 50" fill="none" xmlns="http://www.w3.org/2000/svg">
<circle cx="25" cy="25" r="25" fill="black"/>
<path d="M23.334 30.4975L23.7984 29.9085L23.334 30.4975ZM25.8278 19.4906L25.2874 20.0107C25.4288 20.1576 25.6239 20.2406 25.8278 20.2406C26.0317 20.2406 26.2268 20.1576 26.3682 20.0107L25.8278 19.4906ZM28.3216 30.4975L28.7859 31.0865L28.3216 30.4975ZM23.334 30.4975L23.7984 29.9085C22.5464 28.9216 21.2009 27.9748 20.1322 26.7713C19.0891 25.5968 18.37 24.237 18.37 22.4754H17.62H16.87C16.87 24.7051 17.8004 26.4046 19.0106 27.7673C20.1951 29.1011 21.7067 30.1697 22.8697 31.0865L23.334 30.4975ZM17.62 22.4754H18.37C18.37 20.7603 19.3389 19.329 20.6507 18.7293C21.9151 18.1514 23.6327 18.2915 25.2874 20.0107L25.8278 19.4906L26.3682 18.9705C24.3295 16.8524 21.9432 16.4893 20.0271 17.3651C18.1582 18.2194 16.87 20.1991 16.87 22.4754H17.62ZM23.334 30.4975L22.8697 31.0865C23.2889 31.417 23.7475 31.7764 24.2143 32.0492C24.6809 32.3218 25.227 32.5519 25.8278 32.5519V31.8019V31.0519C25.6078 31.0519 25.3332 30.9656 24.9711 30.7541C24.6093 30.5426 24.2313 30.2499 23.7984 29.9085L23.334 30.4975ZM28.3216 30.4975L28.7859 31.0865C29.9489 30.1697 31.4605 29.1011 32.645 27.7673C33.8552 26.4046 34.7856 24.7051 34.7856 22.4754H34.0356H33.2856C33.2856 24.237 32.5665 25.5968 31.5234 26.7713C30.4547 27.9748 29.1092 28.9216 27.8572 29.9085L28.3216 30.4975ZM34.0356 22.4754H34.7856C34.7856 20.1991 33.4974 18.2194 31.6285 17.3651C29.7124 16.4893 27.3261 16.8524 25.2874 18.9705L25.8278 19.4906L26.3682 20.0107C28.0229 18.2915 29.7405 18.1514 31.0049 18.7293C32.3167 19.329 33.2856 20.7603 33.2856 22.4754H34.0356ZM28.3216 30.4975L27.8572 29.9085C27.4243 30.2499 27.0463 30.5426 26.6845 30.7541C26.3224 30.9656 26.0478 31.0519 25.8278 31.0519V31.8019V32.5519C26.4286 32.5519 26.9747 32.3218 27.4413 32.0492C27.9081 31.7764 28.3667 31.417 28.7859 31.0865L28.3216 30.4975Z" fill="white"/>
</svg>
