<svg width="254" height="40" viewBox="0 0 254 40" fill="none" xmlns="http://www.w3.org/2000/svg">
<path d="M10.014 24.0968L13.654 18.7908L10.266 13.8768H12.226L14.648 17.4468L14.718 17.5448L14.774 17.4608L17.196 13.8768H19.086L15.712 18.7628L19.352 24.0968H17.364L14.704 20.0928L14.662 20.0368L14.606 20.0928L11.946 24.0968H10.014ZM19.3122 22.1648L20.7822 20.9748C21.2115 21.5628 21.6782 21.9968 22.1822 22.2768C22.6862 22.5568 23.3022 22.6968 24.0302 22.6968C24.7302 22.6968 25.2669 22.5334 25.6402 22.2068C26.0135 21.8708 26.2002 21.4554 26.2002 20.9608C26.2002 20.4101 25.9762 20.0041 25.5282 19.7428C25.0895 19.4721 24.3942 19.2761 23.4422 19.1548C22.0795 18.9774 21.0949 18.7068 20.4882 18.3428C19.8909 17.9694 19.5922 17.3814 19.5922 16.5788C19.5922 16.3828 19.6109 16.1914 19.6482 16.0048C19.6949 15.8181 19.7555 15.6408 19.8302 15.4728C19.9142 15.2954 20.0169 15.1321 20.1382 14.9828C20.2595 14.8334 20.3949 14.6934 20.5442 14.5628C20.7029 14.4228 20.8802 14.3014 21.0762 14.1988C21.2815 14.0961 21.5009 14.0074 21.7342 13.9328C21.9675 13.8581 22.2195 13.8021 22.4902 13.7648C22.7609 13.7274 23.0502 13.7088 23.3582 13.7088C24.4035 13.7088 25.2855 13.8908 26.0042 14.2548C26.7322 14.6094 27.3669 15.1321 27.9082 15.8228L26.4242 17.0128C26.0602 16.4248 25.6309 15.9861 25.1362 15.6968C24.6509 15.4074 24.0255 15.2628 23.2602 15.2628C22.5322 15.2628 21.9955 15.4308 21.6502 15.7668C21.3142 16.0934 21.1415 16.4808 21.1322 16.9288C21.1322 17.4328 21.3329 17.8294 21.7342 18.1188C22.1355 18.4081 22.8215 18.6181 23.7922 18.7488C25.1549 18.9168 26.1582 19.1828 26.8022 19.5468C27.4462 19.9108 27.7682 20.5128 27.7682 21.3528C27.7682 21.5581 27.7449 21.7588 27.6982 21.9548C27.6609 22.1414 27.6002 22.3234 27.5162 22.5008C27.4322 22.6688 27.3295 22.8321 27.2082 22.9908C27.0869 23.1401 26.9422 23.2801 26.7742 23.4108C26.6155 23.5414 26.4335 23.6581 26.2282 23.7608C26.0322 23.8634 25.8129 23.9521 25.5702 24.0268C25.3275 24.1014 25.0615 24.1574 24.7722 24.1948C24.4922 24.2321 24.1889 24.2508 23.8622 24.2508C22.7982 24.2508 21.8975 24.0641 21.1602 23.6908C20.4229 23.3081 19.8069 22.7994 19.3122 22.1648Z" fill="black"/>
<rect x="0.5" y="0.5" width="37" height="38.4194" stroke="#A3A3A3"/>
<path d="M56.07 22.068L57.54 20.878C57.9693 21.466 58.436 21.9 58.94 22.18C59.444 22.46 60.06 22.6 60.788 22.6C61.488 22.6 62.0247 22.4367 62.398 22.11C62.7713 21.774 62.958 21.3587 62.958 20.864C62.958 20.3133 62.734 19.9073 62.286 19.646C61.8473 19.3753 61.152 19.1793 60.2 19.058C58.8373 18.8807 57.8527 18.61 57.246 18.246C56.6487 17.8727 56.35 17.2847 56.35 16.482C56.35 16.286 56.3687 16.0947 56.406 15.908C56.4527 15.7213 56.5133 15.544 56.588 15.376C56.672 15.1987 56.7747 15.0353 56.896 14.886C57.0173 14.7367 57.1527 14.5967 57.302 14.466C57.4607 14.326 57.638 14.2047 57.834 14.102C58.0393 13.9993 58.2587 13.9107 58.492 13.836C58.7253 13.7613 58.9773 13.7053 59.248 13.668C59.5187 13.6307 59.808 13.612 60.116 13.612C61.1613 13.612 62.0433 13.794 62.762 14.158C63.49 14.5127 64.1247 15.0353 64.666 15.726L63.182 16.916C62.818 16.328 62.3887 15.8893 61.894 15.6C61.4087 15.3107 60.7833 15.166 60.018 15.166C59.29 15.166 58.7533 15.334 58.408 15.67C58.072 15.9967 57.8993 16.384 57.89 16.832C57.89 17.336 58.0907 17.7327 58.492 18.022C58.8933 18.3113 59.5793 18.5213 60.55 18.652C61.9127 18.82 62.916 19.086 63.56 19.45C64.204 19.814 64.526 20.416 64.526 21.256C64.526 21.4613 64.5027 21.662 64.456 21.858C64.4187 22.0447 64.358 22.2267 64.274 22.404C64.19 22.572 64.0873 22.7353 63.966 22.894C63.8447 23.0433 63.7 23.1833 63.532 23.314C63.3733 23.4447 63.1913 23.5613 62.986 23.664C62.79 23.7667 62.5707 23.8553 62.328 23.93C62.0853 24.0047 61.8193 24.0607 61.53 24.098C61.25 24.1353 60.9467 24.154 60.62 24.154C59.556 24.154 58.6553 23.9673 57.918 23.594C57.1807 23.2113 56.5647 22.7027 56.07 22.068Z" fill="black"/>
<path d="M100.798 13.78H102.716L105.264 21.312L105.88 23.258L106.496 21.312L109.058 13.78H110.92V24H109.24V17.294L109.282 14.662L108.442 17.28L106.146 24H105.572L103.29 17.28L102.45 14.648L102.492 17.294V24H100.798V13.78Z" fill="black"/>
<rect x="87.5" y="0.5" width="37" height="38.4194" stroke="#A3A3A3"/>
<path d="M143.812 24V13.78H145.52V22.404H150.784V24H143.812Z" fill="black"/>
<rect x="129.5" y="0.5" width="37" height="38.4194" stroke="#A3A3A3"/>
<path d="M184.014 24L187.654 18.694L184.266 13.78H186.226L188.648 17.35L188.718 17.448L188.774 17.364L191.196 13.78H193.086L189.712 18.666L193.352 24H191.364L188.704 19.996L188.662 19.94L188.606 19.996L185.946 24H184.014ZM194.013 24V13.78H195.721V22.404H200.985V24H194.013Z" fill="black"/>
<rect x="174.5" y="0.5" width="37" height="38.4194" stroke="#A3A3A3"/>
<path d="M226.42 22.474C227.148 21.9793 227.783 21.5313 228.324 21.13C228.865 20.7193 229.327 20.3507 229.71 20.024C230.578 19.3053 231.157 18.7127 231.446 18.246C231.745 17.7793 231.894 17.308 231.894 16.832C231.894 16.2813 231.731 15.852 231.404 15.544C231.077 15.2267 230.625 15.068 230.046 15.068C229.495 15.068 229.029 15.222 228.646 15.53C228.263 15.838 227.979 16.2813 227.792 16.86L226.266 16.202C226.593 15.4087 227.083 14.7833 227.736 14.326C228.389 13.8687 229.164 13.64 230.06 13.64C230.349 13.64 230.62 13.6633 230.872 13.71C231.124 13.7473 231.357 13.8033 231.572 13.878C231.787 13.9527 231.983 14.046 232.16 14.158C232.347 14.2607 232.515 14.382 232.664 14.522C232.813 14.6527 232.939 14.7973 233.042 14.956C233.154 15.1053 233.247 15.2733 233.322 15.46C233.397 15.6373 233.453 15.824 233.49 16.02C233.527 16.2067 233.546 16.4027 233.546 16.608C233.546 17.364 233.308 18.0313 232.832 18.61C232.365 19.1793 231.563 19.8187 230.424 20.528C229.985 20.808 229.481 21.1067 228.912 21.424C228.352 21.7413 227.722 22.0773 227.022 22.432H233.602V24H226.42V22.474ZM233.971 24L237.611 18.694L234.223 13.78H236.183L238.605 17.35L238.675 17.448L238.731 17.364L241.153 13.78H243.043L239.669 18.666L243.309 24H241.321L238.661 19.996L238.619 19.94L238.563 19.996L235.903 24H233.971Z" fill="black"/>
<rect x="216.5" y="0.5" width="37" height="38.4194" stroke="#A3A3A3"/>
</svg>
